HIERARCHY
ROOT Hips
{
	OFFSET 0.000000 0.000000 0.000000
	CHANNELS 6 Xposition Yposition Zposition Xrotation Yrotation Zrotation
	JOINT LeftUpLeg_virtual
	{
		OFFSET 0.000000 0.000000 0.000000
		CHANNELS 3 Xrotation Yrotation Zrotation
		JOINT LeftUpLeg
		{
			OFFSET 10.205400 -3.823500 0.155100
			CHANNELS 3 Xrotation Yrotation Zrotation
			JOINT LeftLeg
			{
				OFFSET 0.708757 -12.982077 0.567790
				CHANNELS 3 Xrotation Yrotation Zrotation
				JOINT LeftFoot
				{
					OFFSET -0.708756 -10.717838 -2.184338
					CHANNELS 3 Xrotation Yrotation Zrotation
					JOINT LeftToeBase
					{
						OFFSET 0.108149 -7.191104 7.560241
						CHANNELS 3 Xrotation Yrotation Zrotation
						JOINT LeftToe_End
						{
							OFFSET 0.070230 0.081724 4.490308
							CHANNELS 3 Xrotation Yrotation Zrotation
							End Site
							{
								OFFSET 0 0 0
							}
						}
					}
				}
			}
		}
	}
	JOINT RightUpLeg_virtual
	{
		OFFSET 0.000000 0.000000 0.000000
		CHANNELS 3 Xrotation Yrotation Zrotation
		JOINT RightUpLeg
		{
			OFFSET -10.205400 -3.823500 0.005500
			CHANNELS 3 Xrotation Yrotation Zrotation
			JOINT RightLeg
			{
				OFFSET -0.708756 -12.982134 0.610632
				CHANNELS 3 Xrotation Yrotation Zrotation
				JOINT RightFoot
				{
					OFFSET 0.708754 -10.717769 -1.945823
					CHANNELS 3 Xrotation Yrotation Zrotation
					JOINT RightToeBase
					{
						OFFSET -0.108140 -7.191069 7.372968
						CHANNELS 3 Xrotation Yrotation Zrotation
						JOINT RightToe_End
						{
							OFFSET -0.070227 0.081735 4.479403
							CHANNELS 3 Xrotation Yrotation Zrotation
							End Site
							{
								OFFSET 0 0 0
							}
						}
					}
				}
			}
		}
	}
	JOINT Spine_virtual
	{
		OFFSET 0.000000 0.000000 0.000000
		CHANNELS 3 Xrotation Yrotation Zrotation
		JOINT Spine
		{
			OFFSET 0.000000 6.876099 0.125700
			CHANNELS 3 Xrotation Yrotation Zrotation
			JOINT Spine1
			{
				OFFSET 0.000000 5.730043 0.104720
				CHANNELS 3 Xrotation Yrotation Zrotation
				JOINT Spine1_split
				{
					OFFSET 0.000000 5.730043 0.104720
					CHANNELS 3 Xrotation Yrotation Zrotation
					JOINT Spine2
					{
						OFFSET 0.000000 5.730043 0.104720
						CHANNELS 3 Xrotation Yrotation Zrotation
						JOINT Neck_virtual
						{
							OFFSET 0.000000 0.000000 0.000000
							CHANNELS 3 Xrotation Yrotation Zrotation
							JOINT Neck
							{
								OFFSET 0.000000 10.314075 0.188496
								CHANNELS 3 Xrotation Yrotation Zrotation
								JOINT Head
								{
									OFFSET 0.000000 7.643700 -2.377400
									CHANNELS 3 Xrotation Yrotation Zrotation
									JOINT HeadTop_End
									{
										OFFSET 0.000000 43.788605 -13.619600
										CHANNELS 3 Xrotation Yrotation Zrotation
										End Site
										{
											OFFSET 0 0 0
										}
									}
								}
							}
						}
						JOINT LeftShoulder_virtual
						{
							OFFSET 0.000000 0.000000 0.000000
							CHANNELS 3 Xrotation Yrotation Zrotation
							JOINT LeftShoulder
							{
								OFFSET 2.196100 4.412489 0.087492
								CHANNELS 3 Xrotation Yrotation Zrotation
								JOINT LeftShoulder_split
								{
									OFFSET 2.196100 4.412489 0.087492
									CHANNELS 3 Xrotation Yrotation Zrotation
									JOINT LeftArm
									{
										OFFSET 8.771219 -2.981674 -0.026999
										CHANNELS 3 Xrotation Yrotation Zrotation
										JOINT LeftForeArm
										{
											OFFSET 8.512804 0.000000 -0.000000
											CHANNELS 3 Xrotation Yrotation Zrotation
											JOINT LeftHand
											{
												OFFSET 18.484802 0.000000 -0.000000
												CHANNELS 3 Xrotation Yrotation Zrotation
												End Site
												{
													OFFSET 0 0 0
												}
											}
										}
									}
								}
							}
						}
						JOINT RightShoulder_virtual
						{
							OFFSET 0.000000 0.000000 0.000000
							CHANNELS 3 Xrotation Yrotation Zrotation
							JOINT RightShoulder
							{
								OFFSET -2.196100 4.412496 0.070690
								CHANNELS 3 Xrotation Yrotation Zrotation
								JOINT RightShoulder_split
								{
									OFFSET -2.196100 4.412496 0.070690
									CHANNELS 3 Xrotation Yrotation Zrotation
									JOINT RightArm
									{
										OFFSET -8.771282 -2.981682 -0.094208
										CHANNELS 3 Xrotation Yrotation Zrotation
										JOINT RightForeArm
										{
											OFFSET -8.494598 0.000000 0.000000
											CHANNELS 3 Xrotation Yrotation Zrotation
											JOINT RightHand
											{
												OFFSET -18.483803 0.000000 0.000001
												CHANNELS 3 Xrotation Yrotation Zrotation
												End Site
												{
													OFFSET 0 0 0
												}
											}
										}
									}
								}
							}
						}
					}
				}
			}
		}
	}
}
MOTION
Frames: 8
Frame Time: 0.03333333
-0.046654 41.564087 4.046490 0.000000 0.000000 0.000000 8.117200 -38.830438 4.600285 -86.878142 -23.067352 26.427262 77.865038 -2.121532 2.403724 16.289250 1.397451 -1.705025 -5.962834 2.476309 -1.207923 0.000000 0.000000 0.000000 7.759029 -40.809130 3.866737 -115.574669 -47.313963 3.964042 125.397178 14.494805 -21.553620 45.515974 8.302818 33.015864 12.226446 6.927902 -7.618828 0.000000 0.000000 0.000000 7.181584 -40.211598 2.809710 32.127557 -7.510714 -8.064119 12.762103 0.972093 -3.701307 0.353742 1.611668 1.069460 0.000000 0.000000 0.000000 12.585025 0.867228 -2.512018 -7.709577 18.587706 -13.962043 -27.588230 11.075439 4.457769 0.000000 0.000000 0.000000 13.975543 1.228414 -2.974332 13.184598 -18.380210 4.879396 1.790437 -4.531881 -3.272445 -59.076287 -10.215774 -6.040316 47.992270 -16.408249 29.614584 0.000000 0.000000 0.000000 14.858803 1.167867 -3.071074 18.779711 25.762784 -7.295389 0.084222 3.598570 3.057367 -35.074555 2.033984 8.609235 -43.546971 48.400117 33.407835 0.000000 0.000000 0.000000 
-0.039523 41.560772 4.038960 0.000000 0.000000 0.000000 8.086987 -39.120564 4.740492 -86.747951 -22.973761 26.550779 77.744874 -2.199939 2.201402 16.123925 1.613765 -1.911957 -5.917158 2.466413 -1.230703 0.000000 0.000000 0.000000 7.759470 -41.073138 4.005852 -115.105135 -47.276749 4.045788 125.076569 14.843488 -21.510386 45.126169 8.060407 32.597228 12.208681 6.926743 -7.749118 0.000000 0.000000 0.000000 7.092429 -40.343605 2.904376 32.100567 -7.520854 -8.113063 12.737541 0.987349 -3.685693 0.299508 1.620411 1.079906 0.000000 0.000000 0.000000 12.624260 0.869175 -2.518101 -7.693552 18.592000 -13.974544 -27.345205 11.143590 4.316947 0.000000 0.000000 0.000000 13.942785 1.243802 -2.952574 12.907219 -18.461711 4.189251 1.947105 -4.623565 -3.535182 -58.261336 -9.620517 -5.913816 47.850437 -16.313229 29.349559 0.000000 0.000000 0.000000 14.839457 1.152350 -3.078293 18.298627 26.182222 -6.295832 0.079575 3.688144 3.039663 -33.982602 1.897802 8.544171 -43.663610 48.147434 33.328950 0.000000 0.000000 0.000000 
-0.038738 41.556332 4.039103 0.000000 0.000000 0.000000 8.131217 -39.318363 4.900001 -86.582080 -22.912435 26.613072 77.555671 -2.324716 1.995394 15.816237 1.892004 -2.100201 -5.901741 2.440916 -1.217930 0.000000 0.000000 0.000000 7.809104 -41.236420 4.149960 -114.644425 -47.178907 4.136892 124.804222 15.169888 -21.480033 44.672279 7.858012 32.260189 12.144167 6.923028 -7.857731 0.000000 0.000000 0.000000 7.042895 -40.471548 3.022074 32.016071 -7.524118 -8.145313 12.698622 0.998239 -3.673911 0.266056 1.620799 1.094235 0.000000 0.000000 0.000000 12.642227 0.874789 -2.533562 -7.611243 18.584721 -13.997860 -27.042109 11.208298 4.214440 0.000000 0.000000 0.000000 13.906933 1.259120 -2.935143 12.677484 -18.467705 3.603760 2.012354 -4.737008 -3.812347 -57.341801 -8.786987 -5.634034 47.697643 -16.351925 29.150622 0.000000 0.000000 0.000000 14.810145 1.141979 -3.088349 17.859177 26.549966 -5.432243 0.073300 3.742036 3.092152 -33.039148 1.532158 8.363739 -43.746952 47.795034 33.194699 0.000000 0.000000 0.000000 
-0.045118 41.554047 4.030653 0.000000 0.000000 0.000000 8.229851 -39.388909 5.071552 -86.383909 -22.893720 26.600349 77.309204 -2.480908 1.794543 15.415542 2.221054 -2.255896 -5.923646 2.403313 -1.168839 0.000000 0.000000 0.000000 7.896640 -41.304927 4.307421 -114.212265 -47.033174 4.189847 124.568676 15.475938 -21.460827 44.152740 7.719303 32.008930 12.055888 6.922459 -7.956582 0.000000 0.000000 0.000000 7.019260 -40.585585 3.166475 31.890450 -7.529298 -8.163685 12.659992 1.003435 -3.668078 0.277541 1.640226 1.156920 0.000000 0.000000 0.000000 12.644456 0.884642 -2.558271 -7.502266 18.562205 -14.013082 -26.702182 11.249790 4.165146 0.000000 0.000000 0.000000 13.871272 1.273751 -2.925041 12.483435 -18.408499 3.071733 1.963858 -4.813413 -4.096502 -56.333088 -7.689085 -5.269552 47.610240 -16.570474 29.078704 0.000000 0.000000 0.000000 14.773149 1.137208 -3.099067 17.465634 26.860982 -4.676228 0.089124 3.757544 3.207640 -32.306351 1.136582 8.135153 -43.708597 47.311832 32.924343 0.000000 0.000000 0.000000 
-0.060105 41.556076 4.019590 0.000000 0.000000 0.000000 8.335694 -39.357346 5.250986 -86.146690 -22.904594 26.532160 77.014290 -2.653488 1.593400 14.960051 2.593402 -2.369802 -5.975589 2.361748 -1.101810 0.000000 0.000000 0.000000 8.019491 -41.310558 4.490399 -113.829289 -46.858267 4.152286 124.373455 15.758616 -21.418695 43.601896 7.638281 31.811866 11.951992 6.931304 -8.052039 0.000000 0.000000 0.000000 7.013689 -40.677806 3.325883 31.740941 -7.539191 -8.174304 12.621520 1.008954 -3.673391 0.321538 1.669451 1.181432 0.000000 0.000000 0.000000 12.625542 0.901622 -2.592560 -7.394801 18.530631 -14.019355 -26.351227 11.272575 4.180026 0.000000 0.000000 0.000000 13.829954 1.287063 -2.924153 12.299238 -18.298212 2.516967 1.808957 -4.801237 -4.300779 -55.299950 -6.295087 -4.841194 47.680782 -17.018045 29.188649 0.000000 0.000000 0.000000 14.724247 1.138503 -3.111128 17.114653 27.107622 -3.984437 0.099616 3.722187 3.371002 -31.747180 0.845484 7.894117 -43.548255 46.731557 32.535709 0.000000 0.000000 0.000000 
-0.078115 41.562519 4.010331 0.000000 0.000000 0.000000 8.444794 -39.268325 5.447283 -85.886692 -22.920556 26.417543 76.691215 -2.834757 1.395507 14.496819 2.978213 -2.451804 -6.036631 2.323261 -1.032453 0.000000 0.000000 0.000000 8.143284 -41.298380 4.696015 -113.520852 -46.663852 3.993424 124.226647 16.026255 -21.352783 43.068328 7.616113 31.651551 11.822227 6.951966 -8.151032 0.000000 0.000000 0.000000 6.993473 -40.736041 3.487212 31.591052 -7.551473 -8.175120 12.583519 1.016909 -3.684720 0.356117 1.670690 1.200937 0.000000 0.000000 0.000000 12.582604 0.925340 -2.628654 -7.315576 18.490208 -14.012903 -26.001084 11.256778 4.248989 0.000000 0.000000 0.000000 13.776927 1.303122 -2.928635 12.106050 -18.119416 1.883439 1.562859 -4.728319 -4.380296 -54.345329 -4.658493 -4.381046 47.919815 -17.625756 29.465559 0.000000 0.000000 0.000000 14.661086 1.146207 -3.119906 16.797708 27.283081 -3.315116 0.091560 3.615658 3.549010 -31.331485 0.661283 7.677618 -43.269317 46.065371 32.047931 0.000000 0.000000 0.000000 
-0.101215 41.572361 4.005873 0.000000 0.000000 0.000000 8.512263 -39.162379 5.650635 -85.612111 -22.902179 26.299606 76.361412 -3.030358 1.203898 14.059581 3.324579 -2.538912 -6.065225 2.289559 -0.973396 0.000000 0.000000 0.000000 8.244367 -41.274594 4.917516 -113.309403 -46.454452 3.713325 124.119659 16.281890 -21.263431 42.597127 7.647816 31.518465 11.636610 6.986250 -8.246995 0.000000 0.000000 0.000000 6.939857 -40.746156 3.622030 31.453766 -7.562754 -8.167273 12.538310 1.027903 -3.691089 0.382096 1.697995 1.174052 0.000000 0.000000 0.000000 12.512689 0.952013 -2.659975 -7.274978 18.436354 -13.995910 -25.650461 11.198737 4.346382 0.000000 0.000000 0.000000 13.710946 1.320612 -2.931777 11.896384 -17.847277 1.166517 1.230304 -4.607246 -4.394947 -53.528141 -2.806312 -3.904499 48.224185 -18.224989 29.796676 0.000000 0.000000 0.000000 14.578262 1.158536 -3.113246 16.498875 27.351481 -2.644592 0.015502 3.519552 3.669955 -30.947382 0.478097 7.515232 -42.981175 45.417387 31.595861 0.000000 0.000000 0.000000 
-0.124820 41.586960 4.014651 0.000000 0.000000 0.000000 8.536170 -39.080406 5.853809 -85.318830 -22.825157 26.219483 76.033318 -3.241693 1.027718 13.651768 3.597530 -2.665774 -6.042259 2.261904 -0.927693 0.000000 0.000000 0.000000 8.298625 -41.262460 5.130607 -113.162383 -46.250083 3.380228 124.061944 16.521304 -21.163440 42.209258 7.704693 31.393045 11.385821 7.029317 -8.318722 0.000000 0.000000 0.000000 6.860709 -40.712135 3.717841 31.338424 -7.566390 -8.152206 12.476638 1.045458 -3.682961 0.378987 1.738358 1.094164 0.000000 0.000000 0.000000 12.405976 0.981734 -2.676857 -7.263416 18.366474 -13.984912 -25.311315 11.088541 4.448851 0.000000 0.000000 0.000000 13.633217 1.342575 -2.928550 11.674385 -17.451186 0.398757 0.880101 -4.517519 -4.309466 -52.882159 -0.847100 -3.436769 48.492677 -18.672783 30.074293 0.000000 0.000000 0.000000 14.481372 1.182529 -3.086409 16.221609 27.301074 -1.982643 -0.153987 3.456018 3.738049 -30.556788 0.108393 7.422575 -42.809044 44.907606 31.334302 0.000000 0.000000 0.000000 
